<?xml version="1.0" encoding="UTF-8" standalone="no"?>
<!-- Created with Inkscape (http://www.inkscape.org/) -->

<svg
   width="10mm"
   height="10mm"
   viewBox="0 0 10 10"
   version="1.1"
   id="svg209"
   inkscape:version="1.2 (dc2aedaf03, 2022-05-15)"
   sodipodi:docname="And.svg"
   xml:space="preserve"
   xmlns:inkscape="http://www.inkscape.org/namespaces/inkscape"
   xmlns:sodipodi="http://sodipodi.sourceforge.net/DTD/sodipodi-0.dtd"
   xmlns="http://www.w3.org/2000/svg"
   xmlns:svg="http://www.w3.org/2000/svg"><sodipodi:namedview
     id="namedview211"
     pagecolor="#ffffff"
     bordercolor="#000000"
     borderopacity="0.25"
     inkscape:showpageshadow="2"
     inkscape:pageopacity="0.0"
     inkscape:pagecheckerboard="0"
     inkscape:deskcolor="#d1d1d1"
     inkscape:document-units="mm"
     showgrid="false"
     inkscape:zoom="49.0566"
     inkscape:cx="18.121925"
     inkscape:cy="28.681156"
     inkscape:window-width="3840"
     inkscape:window-height="2066"
     inkscape:window-x="1609"
     inkscape:window-y="-11"
     inkscape:window-maximized="1"
     inkscape:current-layer="layer1" /><defs
     id="defs206" /><g
     inkscape:label="Or"
     inkscape:groupmode="layer"
     id="layer1"><path
       d="m 9.9994802,5.00846 c 0,0.13404 -0.0114,0.25008 -0.0344,0.34611 -0.0229,0.10003 -0.0532,0.17605 -0.091,0.24007 -0.0377,0.06 -0.0836,0.11003 -0.13679,0.13804 -0.0532,0.03 -0.1098399,0.04 -0.1704899,0.04 h -3.72709 v 3.88217 c 0,0.06 -0.0155,0.10503 -0.0458,0.14404 -0.0303,0.04 -0.0775,0.07 -0.14218,0.10103 -0.0647,0.03 -0.1496,0.05 -0.25539,0.07 -0.10647,0.02 -0.23855,0.03 -0.39758,0.03 -0.15903,0 -0.28234,0 -0.39218,-0.03 -0.10984,-0.02 -0.19677,-0.04 -0.26146,-0.07 -0.0647,-0.03 -0.11186,-0.06 -0.14218,-0.10103 -0.0303,-0.04 -0.0452,-0.09 -0.0452,-0.14404 V 5.77268 H 0.432 c -0.0681,0 -0.12668,-0.01 -0.17588,-0.04 -0.0492,-0.03 -0.093,-0.07 -0.13072,-0.13804 C 0.0877,5.53464 0.0573,5.44959 0.0344,5.35457 0.0115,5.25857 0,5.1425 0,5.00846 0,4.88042 0.0115,4.76839 0.0344,4.67236 0.0573,4.57233 0.0876,4.49631 0.1254,4.43229 c 0.0377,-0.06 0.0815,-0.11003 0.13072,-0.13804 0.0492,-0.03 0.10378,-0.04 0.16443,-0.04 H 4.1590899 V 0.37208 c 0,-0.06 0.0148,-0.10803 0.0452,-0.15504 0.0303,-0.05 0.0775,-0.08 0.14218,-0.11704 0.064,-0.03 0.15162,-0.06 0.26146,-0.07 0.10984,-0.02 0.24056,-0.03 0.39218,-0.03 0.15903,0 0.29178,0 0.39758,0.03 0.10579,0.02 0.19137,0.04 0.25539,0.07 0.0647,0.03 0.11186,0.07 0.14218,0.11704 0.0303,0.05 0.0458,0.10003 0.0458,0.15504 v 3.88217 h 3.73855 c 0.0606,0 0.1152299,0.01 0.1650899,0.04 0.0492,0.03 0.0943,0.07 0.13612,0.13804 0.0418,0.06 0.0721,0.14404 0.091,0.24007 0.0189,0.10003 0.0283,0.20806 0.0283,0.3361 z"
       id="path16"
       style="stroke-width:0.067732" /></g><style
     type="text/css"
     id="style2">
	.st0{fill:#FFFFFF;}
</style></svg>
