<?xml version="1.0" encoding="UTF-8" standalone="no"?>
<!-- Created with Inkscape (http://www.inkscape.org/) -->

<svg
   width="10.094"
   height="10"
   version="1.1"
   viewBox="0 0 10 10"
   id="svg5"
   xmlns="http://www.w3.org/2000/svg"
   xmlns:svg="http://www.w3.org/2000/svg">
  <defs
     id="defs9" />
  <path
     id="pathIdD"
     d="m 9.081751,5.061412 c 0.14853,-0.14853 0.22851,-0.34562 0.22851,-0.55413 0,-0.17138 -0.054265,-0.33133 -0.15424,-0.46558 h 0.014286 c 0.43131,0 0.78263,-0.35133 0.78263,-0.78263 0,-0.40274 -0.30563,-0.73693 -0.69694,-0.77978 0.099975,-0.13139 0.1571,-0.2942 0.1571,-0.47129 0,-0.20851 -0.082837,-0.4056 -0.22851,-0.55413 -0.14853,-0.14853 -0.34562,-0.22851 -0.55413,-0.22851 L 5.488457,1.1968 C 5.619847,1.0397 5.691257,0.84262 5.691257,0.6341 5.691257,0.28563 5.405627,0 5.057157,0 l -2.0594,0.028564 c -0.37418,0 -0.994,0.27135 -1.8395,0.80834 -0.61697,0.39132 -1.1368,0.78835 -1.1425,0.7912 -0.039989,0.031419 -0.06284,0.077121 -0.06284,0.12568 v 4.1702 c 0,0.042844 0.017138,0.082833 0.045702,0.1114 0.028563,0.028562 0.068551,0.0457 0.1114,0.0457 h 0.091402 c 0.33419,0 0.66267,0.048557 0.98258,0.13996 0.34847,0.10283 0.70837,0.15424 1.074,0.15424 h 4.353 c 0.18566,0 0.36275,-0.071408 0.49414,-0.20566 0.13425,-0.13425 0.20851,-0.3142 0.20566,-0.50557 -0.00286,-0.1371 -0.045701,-0.26564 -0.11711,-0.37132 h 1.3253 c 0.21708,-0.00285 0.41417,-0.082833 0.5627,-0.23136 z M 8.527621,4.972866 h -3.7275 c -0.088546,0 -0.15995,0.071408 -0.15995,0.15995 0,0.042845 0.017138,0.082833 0.045702,0.1114 0.028562,0.028562 0.068551,0.045702 0.1114,0.045702 h 1.8081 c 0.21422,0 0.39132,0.16852 0.39417,0.37704 0.00285,0.10568 -0.037133,0.2028 -0.1114,0.27706 -0.071408,0.071408 -0.16852,0.1114 -0.27135,0.1114 h -4.353 c -0.33419,0 -0.66267,-0.048557 -0.98258,-0.13996 -0.32562,-0.094259 -0.66552,-0.14567 -1.0054,-0.15424 v -3.9332 c 0.6084,-0.45701 2.1108,-1.4881 2.7249,-1.4881 l 2.0594,-0.028563 c 0.17424,0 0.31705,0.14282 0.31705,0.31705 0,0.15139 -0.059983,0.29135 -0.16567,0.39989 -0.10568,0.10568 -0.2485,0.16567 -0.39989,0.16567 h -1.7024 c -0.088546,0 -0.15995,0.099972 -0.15995,0.18852 0,0.042845 0.017138,0.082834 0.045702,0.1114 0.028562,0.028562 0.068551,0.045702 0.1114,0.045702 h 5.5213 c 0.12568,0 0.24279,0.048557 0.33133,0.1371 0.088541,0.088546 0.1371,0.20566 0.1371,0.33133 0,0.25707 -0.20851,0.46558 -0.46558,0.46558 h -3.2476 c -0.088546,0 -0.15995,0.071408 -0.15995,0.15995 0,0.054271 0.028562,0.10283 0.071408,0.13139 0.025706,0.017138 0.057127,0.025707 0.088546,0.025707 h 3.7846 c 0.25707,0 0.46558,0.20851 0.46558,0.46558 0,0.25707 -0.20851,0.46558 -0.46558,0.46558 h -4.0474 c -0.088546,0 -0.15995,0.071408 -0.15995,0.15995 0,0.088546 0.071408,0.15995 0.15995,0.15995 h 3.4019 c 0.12568,0 0.24279,0.048557 0.33133,0.1371 0.088541,0.088546 0.1371,0.20566 0.1371,0.33133 0,0.12568 -0.048561,0.24279 -0.1371,0.33133 -0.082837,0.082834 -0.19994,0.13139 -0.32562,0.13139 z"
     stroke="#000"
     class = "red"
     style="fill:#000000;fill-opacity:1;stroke:none" />
</svg>
