<?xml version="1.0" encoding="UTF-8" standalone="no"?>
<!-- Created with Inkscape (http://www.inkscape.org/) -->

<svg
   width="10mm"
   height="10mm"
   viewBox="0 0 10 10"
   version="1.1"
   id="svg209"
   inkscape:version="1.2 (dc2aedaf03, 2022-05-15)"
   sodipodi:docname="mail empfangende Aufgabe.svg"
   xml:space="preserve"
   xmlns:inkscape="http://www.inkscape.org/namespaces/inkscape"
   xmlns:sodipodi="http://sodipodi.sourceforge.net/DTD/sodipodi-0.dtd"
   xmlns="http://www.w3.org/2000/svg"
   xmlns:svg="http://www.w3.org/2000/svg"><sodipodi:namedview
     id="namedview211"
     pagecolor="#ffffff"
     bordercolor="#000000"
     borderopacity="0.25"
     inkscape:showpageshadow="2"
     inkscape:pageopacity="0.0"
     inkscape:pagecheckerboard="0"
     inkscape:deskcolor="#d1d1d1"
     inkscape:document-units="mm"
     showgrid="false"
     inkscape:zoom="49.0566"
     inkscape:cx="18.121925"
     inkscape:cy="15.635001"
     inkscape:window-width="3840"
     inkscape:window-height="2066"
     inkscape:window-x="1609"
     inkscape:window-y="-11"
     inkscape:window-maximized="1"
     inkscape:current-layer="layer1" /><defs
     id="defs206" /><g
     inkscape:label="Or"
     inkscape:groupmode="layer"
     id="layer1"><g
       id="g213"
       transform="matrix(0.02109705,0,0,0.02110298,0,-1.2514069)">
	<path
   d="M 437.5,59.3 H 36.5 C 16.4,59.3 0,75.7 0,95.8 v 282.4 c 0,20.1 16.4,36.5 36.5,36.5 h 401 c 20.1,0 36.5,-16.4 36.5,-36.5 V 95.8 C 474,75.7 457.6,59.3 437.5,59.3 Z m -5.3,27 L 239.5,205.1 46.8,86.3 Z M 447,378.2 c 0,5.2 -4.3,9.5 -9.5,9.5 h -401 c -5.2,0 -9.5,-4.3 -9.5,-9.5 V 104.9 l 203.7,128.2 c 0.1,0.1 0.3,0.2 0.4,0.3 0.1,0.1 0.3,0.2 0.4,0.3 0.3,0.2 0.5,0.4 0.8,0.5 0.1,0.1 0.2,0.1 0.3,0.2 0.4,0.2 0.8,0.4 1.2,0.6 0.1,0 0.2,0.1 0.3,0.1 0.3,0.1 0.6,0.3 1,0.4 0.1,0 0.3,0.1 0.4,0.1 0.3,0.1 0.6,0.2 0.9,0.2 0.1,0 0.3,0.1 0.4,0.1 0.3,0.1 0.7,0.1 1,0.2 0.1,0 0.2,0 0.3,0 0.4,0 0.9,0.1 1.3,0.1 v 0 0 c 0.4,0 0.9,0 1.3,-0.1 0.1,0 0.2,0 0.3,0 0.3,0 0.7,-0.1 1,-0.2 0.1,0 0.3,-0.1 0.4,-0.1 0.3,-0.1 0.6,-0.2 0.9,-0.2 0.1,0 0.3,-0.1 0.4,-0.1 0.3,-0.1 0.6,-0.2 1,-0.4 0.1,0 0.2,-0.1 0.3,-0.1 0.4,-0.2 0.8,-0.4 1.2,-0.6 0.1,-0.1 0.2,-0.1 0.3,-0.2 0.3,-0.2 0.5,-0.3 0.8,-0.5 0.1,-0.1 0.3,-0.2 0.4,-0.3 0.1,-0.1 0.3,-0.2 0.4,-0.3 L 447,109.2 Z"
   id="path211" />
</g></g><style
     type="text/css"
     id="style2">
	.st0{fill:#FFFFFF;}
</style></svg>
