<?xml version="1.0" encoding="UTF-8" standalone="no"?>
<!-- Created with Inkscape (http://www.inkscape.org/) -->

<svg
   width="10"
   height="10"
   version="1.1"
   viewBox="0 0 10 10"
   id="svg5"
   xmlns="http://www.w3.org/2000/svg"
   xmlns:svg="http://www.w3.org/2000/svg">
  <defs
     id="defs9" />
  <path
     id="path2538"
     style="fill:#000000;fill-opacity:1;stroke:none;stroke-width:0.0649304"
     d="m 5.4473325,2.6394424 c -0.1192109,0 -0.2186814,0.065684 -0.262031,0.171584 -0.017341,0.019449 -0.030226,0.040359 -0.041069,0.066293 l -0.037154,0.079943 C 5.042051,3.0977413 4.9761325,3.2412096 4.9154442,3.3881721 4.6986972,3.3254974 4.4735791,3.2540802 4.2329907,3.1697925 4.1181149,3.1308885 3.9993015,3.1826187 3.9494501,3.2906812 c -0.0022,0.00217 -0.0037,0.00345 -0.00591,0.0078 C 3.7051152,3.629148 3.4432715,3.927359 3.2200227,4.1758993 c -0.06719,0.075642 -0.082458,0.1746155 -0.039107,0.2632255 0.00431,0.01513 0.00911,0.027981 0.015649,0.040947 0.062855,0.1339959 0.1283539,0.2789903 0.1955449,0.4367593 -0.1538903,0.062672 -0.3062777,0.135569 -0.4536652,0.204728 l -0.086042,0.040947 c -0.023838,0.010807 -0.046766,0.025816 -0.068442,0.040947 -0.1105406,0.045386 -0.1744597,0.1476225 -0.1701245,0.2729733 0.013005,0.3349889 0.038526,0.6758625 0.064527,1.0022065 0.015178,0.1966712 0.031968,0.3921743 0.044974,0.5888451 0.0022,0.025933 0.00701,0.052058 0.015649,0.077993 0.0022,0.121028 0.069573,0.2197898 0.1779458,0.2651752 0.015178,0.010807 0.029595,0.020815 0.046926,0.027298 0.1864029,0.079965 0.3709026,0.1705045 0.5573045,0.2612757 -0.019503,0.058353 -0.037204,0.1190808 -0.056707,0.1774336 -0.047687,0.1512852 -0.094853,0.3051831 -0.1447033,0.4543075 -0.030346,0.090771 -0.00481,0.1832132 0.064527,0.2437272 l 0.013686,0.011699 c 0.2926074,0.2571849 0.6024002,0.4781301 0.9210186,0.6531891 0.013006,0.00864 0.027853,0.015174 0.043021,0.019498 0.049849,0.019449 0.1061604,0.021387 0.1603469,0.00194 0.1257127,-0.043223 0.2497343,-0.087202 0.375447,-0.1325876 l 0.031287,-0.013649 c 0.088866,0.1793813 0.1761797,0.3568189 0.2542086,0.5362001 0.00651,0.01729 0.018492,0.031666 0.029335,0.046796 0.045514,0.1080609 0.1447753,0.1752722 0.2639863,0.1774335 0.026011,0.00865 0.052212,0.013434 0.078223,0.015599 0.1972398,0.012965 0.3933083,0.027556 0.5905471,0.044846 C 6.4748396,9.961589 6.8143188,9.9891942 7.1524434,10 h 0.011734 c 0.119211,0 0.2186814,-0.063734 0.262031,-0.1696339 0.017341,-0.01945 0.031968,-0.04231 0.044974,-0.068243 l 0.039106,-0.081892 c 0.060692,-0.1318343 0.1233359,-0.2652942 0.1818575,-0.4036123 0.2037406,0.073482 0.4009174,0.1257286 0.6003238,0.1559854 0.013005,0.00217 0.026101,0.00194 0.039106,0.00194 0.021676,0 0.042851,-0.00133 0.064527,-0.0078 0.032519,-0.00648 0.065688,-0.023237 0.093862,-0.044845 0.2991091,-0.2226053 0.6724426,-0.5302848 0.9347059,-0.9495613 0.030346,-0.047547 0.0417,-0.1002169 0.035202,-0.1520859 0,-0.041063 -0.011574,-0.084148 -0.03324,-0.1208887 C 9.339932,8.0080905 9.2713754,7.8635199 9.2193564,7.7187182 9.3754142,7.6560425 9.5275894,7.5850962 9.6749769,7.5159371 l 0.086042,-0.040947 C 9.7848577,7.4641839 9.807785,7.4491743 9.8294608,7.434044 9.9400024,7.388658 10.00392,7.2844712 9.999586,7.1591205 9.9865805,6.8241315 9.9610601,6.485208 9.9350591,6.1588637 9.9155559,5.9686766 9.8970138,5.7705892 9.8861709,5.5739183 9.8839683,5.5479853 9.881165,5.5218596 9.8724846,5.4959256 9.870282,5.3748974 9.8029118,5.2759247 9.6945388,5.2327002 9.6793607,5.2218935 9.6629912,5.2138352 9.6456506,5.2073521 9.4440766,5.1209038 9.2516595,5.0246791 9.0414152,4.9187791 9.078259,4.7350755 9.1179863,4.552634 9.1548322,4.3689304 c 0.00431,-0.01729 0.0039,-0.037305 0.0039,-0.054594 C 9.1652446,4.2473387 9.142107,4.1827112 9.0922477,4.133003 8.7953041,3.8239491 8.4691368,3.5642409 8.1223429,3.3589252 8.0746562,3.3308278 8.0237956,3.3212401 7.9717727,3.327728 c -0.039016,0 -0.078524,0.00979 -0.1153714,0.029247 C 7.7870383,3.393715 7.7202252,3.433113 7.6530342,3.4720142 7.5750313,3.3164032 7.4957719,3.1525003 7.4242458,2.9904091 7.417738,2.9731195 7.4074958,2.9567892 7.3988255,2.9416638 7.3533013,2.8336028 7.2542584,2.766391 7.1328799,2.7642302 7.1068689,2.7555848 7.0804575,2.7527457 7.0566191,2.7505813 6.8593803,2.7376153 6.6613565,2.7210753 6.4641177,2.7037857 6.1346624,2.6778486 5.7969273,2.6502485 5.4609693,2.6394418 Z m 0.1838118,0.6141927 c 0.2752678,0.012965 0.5542689,0.036881 0.8252015,0.058495 0.1560578,0.012966 0.3112956,0.02429 0.4673534,0.035097 0.088866,0.198832 0.1860045,0.3919626 0.2835406,0.5907948 0.049849,0.099416 0.1421362,0.1579353 0.2483427,0.1579353 0.056357,0 0.1152542,-0.016963 0.1564362,-0.042896 l 0.021506,-0.011699 C 7.7505681,3.9678799 7.8710545,3.899095 7.9815952,3.8385809 8.220016,3.9898662 8.4494692,4.1748914 8.6640487,4.38453 8.6163617,4.6201025 8.5691957,4.8547916 8.5193454,5.0903641 c -0.015178,0.073482 0.0014,0.1468008 0.046926,0.2008312 0.026011,0.056192 0.072286,0.1023305 0.1329703,0.1325878 0.1994064,0.099417 0.3950513,0.1941135 0.5944577,0.2827235 0.010843,0.1556081 0.022407,0.3103989 0.03324,0.4660066 0.021676,0.2701524 0.043702,0.5502981 0.056707,0.8247731 l -0.019553,0.0078 C 9.2058674,7.078564 9.0458228,7.1551514 8.8810957,7.2156654 8.7857221,7.2502458 8.7195934,7.3233529 8.6914169,7.4184466 8.6675785,7.4659929 8.662983,7.5206125 8.6738159,7.5724821 8.7258378,7.8102161 8.8136204,8.0475359 8.9436682,8.2939149 8.7854438,8.5165202 8.578136,8.7240755 8.2768583,8.9510035 8.0882888,8.9142638 7.902045,8.8550622 7.7156441,8.7794195 7.659287,8.7232278 7.5774656,8.6897276 7.4907664,8.6897276 c -0.134382,0 -0.2458457,0.077643 -0.2913619,0.2008313 C 7.1387122,9.0548114 7.0619088,9.2165564 6.988215,9.372164 L 6.978405,9.391662 C 6.7009721,9.3786959 6.4221841,9.3547804 6.1512516,9.3331671 5.9973613,9.320201 5.8397437,9.3088773 5.6858535,9.2980706 5.5969877,9.0992384 5.499849,8.904158 5.4023129,8.7053259 5.3871348,8.6750692 5.3674914,8.6491572 5.343653,8.6253835 5.2851334,8.5475795 5.1850242,8.5167108 5.0874891,8.5512901 4.9704457,8.5923535 4.8525503,8.6348045 4.735507,8.6780283 4.6466412,8.7104443 4.5564758,8.7433116 4.46761,8.7735692 4.2421937,8.6438962 4.0280077,8.4919477 3.8242661,8.3212115 3.8546122,8.2239564 3.8877817,8.124044 3.9181278,8.026789 c 0.047687,-0.149124 0.092901,-0.2973839 0.142748,-0.4465083 0.013006,-0.038904 0.014327,-0.078299 0.00781,-0.1150393 0,-0.1037385 -0.056738,-0.1940191 -0.1564363,-0.2437273 C 3.7128414,7.1220987 3.5171975,7.0252396 3.3177911,6.9387904 3.3069482,6.7831828 3.2934321,6.6262306 3.2825892,6.472784 3.2609134,6.2026318 3.2388871,5.9244351 3.2258816,5.6499607 l 0.019553,-0.0078 C 3.4014927,5.5686826 3.5637049,5.492095 3.728432,5.4315806 3.8151252,5.3991596 3.8795199,5.3436497 3.9142002,5.2658461 3.9640495,5.1556239 3.9524857,5.0127903 3.8809606,4.8290868 3.8701177,4.8031538 3.8478311,4.7643427 3.8066521,4.6887 3.7698082,4.6195412 3.68817,4.4736081 3.6599925,4.4001269 3.8984134,4.134297 4.0895109,3.8997722 4.2564056,3.6728446 c 0.095364,0.028098 0.2844146,0.09237 0.375447,0.1247885 0.065027,0.023772 0.1136763,0.040522 0.131016,0.044846 0.026011,0.00865 0.057438,0.02018 0.089947,0.033147 0.086693,0.03458 0.1857932,0.074093 0.2854959,0.074093 0.1300478,0 0.2260791,-0.069631 0.2737639,-0.1949818 C 5.4727674,3.5926452 5.547827,3.4306899 5.6193532,3.2750822 Z m 0.5221066,0.996357 c -0.015448,-5.441e-4 -0.032629,-2.015e-4 -0.048888,0.00194 -0.069363,0.00648 -0.1385549,0.016281 -0.2014118,0.029248 -0.097536,0.01513 -0.1909753,0.038409 -0.2776746,0.064344 -0.023838,0.00648 -0.046555,0.01628 -0.070394,0.029247 -0.8084645,0.2787973 -1.3179521,0.9399872 -1.3981486,1.8152807 -0.043352,0.4711462 0.087174,0.9175231 0.375447,1.2849302 0.3793056,0.4841128 1.0073964,0.8106315 1.6836445,0.8754683 0.062855,0.00648 0.1229124,0.0078 0.1857682,0.0078 0.5917185,0 1.190123,-0.2610457 1.5976051,-0.7019345 C 8.3481602,7.2716263 8.5317177,6.7993376 8.525215,6.2914517 8.5057118,4.9385285 7.2971308,4.2214732 6.1982265,4.2538918 c -0.015168,-0.00214 -0.029535,-0.00335 -0.044974,-0.0039 z m 0.142748,0.8072247 c 0.7174302,0 1.4516293,0.4768708 1.4646338,1.382421 0.00431,0.235573 -0.076221,0.4393458 -0.2366097,0.612243 -0.2665974,0.2874421 -0.7590507,0.4718559 -1.2554007,0.4718559 -0.095363,0 -0.1853206,-0.00631 -0.2698523,-0.021448 C 5.2726695,7.3769376 4.9883891,6.8575515 4.9623801,6.4123404 4.9341966,5.9303884 5.2038266,5.3186547 5.8540667,5.1176612 5.9971191,5.0787572 6.1464428,5.0572167 6.2959989,5.0572168 Z M 2.8334518,0 C 2.7142411,0 2.6147706,0.0656846 2.5714212,0.171584 2.5540812,0.191033 2.5411942,0.2119438 2.5303562,0.2378779 L 2.493203,0.31782038 C 2.4281796,0.45829929 2.3622575,0.6017676 2.3015686,0.74873015 2.0848218,0.68605544 1.8597041,0.61463817 1.6191154,0.53035052 1.5042399,0.4914465 1.3854266,0.54317682 1.3355748,0.65123924 c -0.00218,0.002177 -0.00368,0.003457 -0.00587,0.007799 -0.2384222,0.3306672 -0.50026588,0.62887806 -0.72351468,0.87741846 -0.067191,0.075642 -0.0824567,0.1746155 -0.0391091,0.2632254 0.004315,0.01513 0.009141,0.02798 0.0156436,0.040947 C 0.64558152,1.9746251 0.7110787,2.1196194 0.77827,2.2773885 0.62437978,2.3400631 0.47199225,2.4129602 0.32460487,2.4821193 l -0.0860399,0.040947 c -0.0238414,0.010807 -0.0467671,0.025816 -0.0684409,0.040947 C 0.05958386,2.6093966 -0.00433451,2.7116346 2.4665888e-7,2.8369853 0.01300373,3.1719742 0.03852223,3.5128478 0.0645302,3.8391918 0.07970427,4.035863 0.09649713,4.2313661 0.10950562,4.4280369 c 0.002183,0.025933 0.006968,0.052057 0.0156436,0.077993 0.002183,0.121028 0.0695728,0.2197899 0.17794624,0.2651753 0.0151741,0.010807 0.0295912,0.020815 0.0469309,0.027298 C 0.53642838,4.8784678 0.72092838,4.9690073 0.9073305,5.0597785 0.8878253,5.1181319 0.8701306,5.1788593 0.8506224,5.237212 0.8029386,5.3884972 0.7557705,5.5423952 0.70591886,5.6915196 c -0.0303441,0.090771 -0.004846,0.1832132 0.0645299,0.2437273 l 0.0136882,0.011699 C 1.0767445,6.20413 1.3865378,6.4250752 1.7051554,6.6001342 c 0.013003,0.00865 0.027851,0.015174 0.04302,0.019498 0.049851,0.019449 0.1061605,0.02139 0.1603471,0.00194 0.1257129,-0.043219 0.2497341,-0.087199 0.3754468,-0.1325842 l 0.031287,-0.013649 c 0.088866,0.1793812 0.1761798,0.3568188 0.2542088,0.5362 0.0065,0.01729 0.018494,0.031665 0.029332,0.046796 0.032373,0.076854 0.093587,0.1311121 0.1681691,0.1579353 -0.0027,-0.015731 -0.00557,-0.03209 -0.00587,-0.048745 -0.00864,-0.025935 -0.013441,-0.05206 -0.015644,-0.077993 C 2.732451,6.8928677 2.7156591,6.6973648 2.700481,6.5006935 2.6854732,6.3123267 2.6717899,6.1196197 2.6594165,5.9254972 2.6051906,5.8958592 2.5386722,5.8887955 2.4736484,5.9118484 2.3566053,5.9529118 2.23871,5.9953628 2.1216669,6.0385866 2.0328011,6.0710027 1.9426359,6.1038701 1.8537698,6.1341276 1.6283536,6.0044546 1.4141673,5.8525062 1.2104258,5.6817699 c 0.030344,-0.097255 0.063518,-0.1971675 0.093862,-0.2944224 0.047684,-0.1491241 0.092897,-0.297384 0.1427481,-0.4465084 0.013003,-0.038904 0.014329,-0.078299 0.00782,-0.1150393 0,-0.1037385 -0.056733,-0.1940192 -0.1564363,-0.2437273 C 1.0990138,4.482657 0.90337019,4.385798 0.70396338,4.2993489 0.69312547,4.1437413 0.67960413,3.986789 0.66876522,3.8333424 0.64708941,3.5631903 0.62506356,3.2849935 0.61205708,3.0105192 l 0.0195546,-0.0078 C 0.78766901,2.9292385 0.94988125,2.852654 1.1146085,2.7921395 1.2013067,2.7597185 1.2656971,2.7042088 1.3003766,2.626405 1.3502289,2.5161828 1.33866,2.3733493 1.2671339,2.1896457 1.256296,2.1637131 1.2340056,2.1249015 1.1928266,2.0492589 1.1559807,1.9800997 1.0743449,1.8341671 1.0461677,1.7606857 1.2845887,1.4948559 1.475686,1.2603313 1.6425809,1.0334035 c 0.095368,0.028098 0.2844138,0.09237 0.375447,0.1247884 0.065024,0.023772 0.1136759,0.040522 0.1310154,0.044846 0.026008,0.00865 0.057439,0.02018 0.089951,0.033146 0.086698,0.03458 0.1857928,0.074093 0.2854959,0.074093 0.1300479,0 0.2260792,-0.069631 0.2737634,-0.1949817 0.060689,-0.16209254 0.1357519,-0.32404762 0.207278,-0.47965531 l 0.011733,-0.021448 c 0.2752675,0.012966 0.5542683,0.0368811 0.8252011,0.0584945 0.1560573,0.012966 0.3112961,0.02429 0.4673534,0.0350968 0.088866,0.19883206 0.1860046,0.39196261 0.2835407,0.59079481 0.049851,0.099416 0.1421365,0.1579353 0.2483425,0.1579353 0.056354,0 0.1152544,-0.016963 0.1564363,-0.042896 l 0.02151,-0.011699 C 5.136692,1.3284374 5.2571781,1.2596517 5.3677189,1.1991376 c 0.238421,0.1512853 0.4678741,0.3363105 0.6824532,0.5459491 -0.047684,0.2355725 -0.094852,0.4702616 -0.1447036,0.705834 -0.015174,0.073482 0.00143,0.1468009 0.046931,0.2008313 0.00591,0.012751 0.013589,0.025399 0.02151,0.037046 0.1721888,0.011697 0.3431454,0.023726 0.5123287,0.037046 0.1972398,0.01729 0.3952625,0.033829 0.5925023,0.046796 0.023838,0.00216 0.050252,0.00501 0.076263,0.013648 0.034791,6.194e-4 0.067385,0.00681 0.097772,0.017548 C 7.2348512,2.707053 7.1729354,2.6300477 7.0806961,2.593258 7.0655217,2.5824511 7.0491498,2.5743936 7.0318097,2.5679104 6.8302354,2.4814618 6.6378192,2.3852373 6.4275748,2.2793373 6.4644206,2.0956338 6.5041439,1.9131922 6.540991,1.7294887 6.545311,1.7121987 6.544901,1.6921825 6.544901,1.6748945 6.551401,1.6078971 6.528267,1.5432696 6.478416,1.4935614 6.1814778,1.1845072 5.8553103,0.92479915 5.5085157,0.71948337 c -0.047684,-0.0280974 -0.09855,-0.0376851 -0.1505698,-0.0311971 -0.039016,0 -0.078525,0.009794 -0.1153718,0.0292473 C 5.1732155,0.75427327 5.1063983,0.79367145 5.039207,0.83257285 4.9611981,0.67696074 4.8819415,0.51305845 4.810415,0.35096726 4.8039172,0.33367758 4.7936624,0.31734714 4.7849941,0.30222181 4.7394724,0.19416077 4.6404304,0.12694919 4.5190525,0.12478836 4.4930401,0.11614302 4.4666317,0.11330396 4.4427898,0.11113962 4.2455502,0.09817361 4.0475267,0.08163368 3.8502875,0.06434399 3.5208328,0.03840698 3.1830971,0.01080667 2.84714,0 Z m 0.7059186,1.6105496 c -0.015443,-5.44e-4 -0.032631,-1.982e-4 -0.048886,0.00194 -0.069359,0.00648 -0.1385551,0.01628 -0.2014117,0.029247 -0.097536,0.01513 -0.1909754,0.038409 -0.2776743,0.064344 -0.023842,0.00648 -0.046554,0.01628 -0.070396,0.029248 -0.8084643,0.2787973 -1.3179526,0.9399872 -1.398149,1.8152807 -0.043348,0.4711462 0.087175,0.9175231 0.375447,1.2849302 0.1879618,0.2398979 0.4377855,0.4409609 0.7235177,0.5907949 0.017561,-0.092049 0.07566,-0.1644544 0.164258,-0.2008313 0.021676,-0.01513 0.044602,-0.03014 0.068441,-0.040947 l 0.086039,-0.040947 C 3.1079437,5.0744611 3.2603313,5.0015639 3.4142214,4.9388892 3.4022069,4.9106787 3.3909241,4.8883003 3.3790233,4.8608965 2.657531,4.7336544 2.3744343,4.2168322 2.3484994,3.7728981 2.3203209,3.290946 2.5899468,2.6792124 3.2401861,2.4782188 c 0.1430526,-0.038903 0.292377,-0.060444 0.4419324,-0.060444 0.5432159,0 1.0954279,0.2735605 1.33753,0.7994254 0.035822,-0.080444 0.073173,-0.1593882 0.1095054,-0.2378778 l 0.037153,-0.079942 c 0.010843,-0.025935 0.023724,-0.046845 0.041065,-0.066294 0.043349,-0.1058995 0.1428207,-0.171584 0.2620307,-0.171584 h 0.013688 c 0.054057,0.00173 0.1081953,0.00722 0.1623026,0.00975 C 5.2259848,1.9575099 4.3769265,1.5910676 3.5843458,1.6144494 c -0.015172,-0.00214 -0.029532,-0.00335 -0.044975,-0.0039 z" />
</svg>
