<?xml version="1.0" encoding="UTF-8"?>
<!-- Created with Inkscape (http://www.inkscape.org/) -->
<svg width="10.094" height="10" version="1.1" viewBox="0 0 10.094 10" xmlns="http://www.w3.org/2000/svg">
 <g transform="translate(-.012349 -.013436)">
  <path d="m5.0504 0.013436c-1.338 0-2.4262 1.105-2.4262 2.4621 0 1.3573 1.0882 2.4601 2.4262 2.4601 1.338 0 2.4282-1.1029 2.4282-2.4601 0-1.3572-1.0903-2.4621-2.4282-2.4621zm-2.7253 4.5933c-0.017688 9.65e-4 -0.036132 0.00438-0.053827 0.00797-1.8847 0.38041-2.3818 2.9876-2.2348 5.1057 0.011484 0.16471 0.16092 0.29306 0.34091 0.29306h9.364c0.17999 0 0.32965-0.12824 0.34091-0.29306 0.14702-2.1204-0.35167-4.7306-2.2368-5.1076-0.14145-0.028044-0.28688 0.028649-0.36284 0.14155-0.86811 1.2895-2.2676 1.3278-2.4242 1.3278-0.15668 0-1.5564-0.038725-2.4242-1.3278-0.066658-0.098971-0.18521-0.15428-0.30901-0.14753z"/>
 </g>
</svg>
